<?xml version="1.0" encoding="utf-8"?>
<!-- Generator: Adobe Illustrator 22.1.0, SVG Export Plug-In . SVG Version: 6.00 Build 0)  -->
<svg version="1.1" id="Logo" xmlns="http://www.w3.org/2000/svg" xmlns:xlink="http://www.w3.org/1999/xlink" x="0px" y="0px"
	 viewBox="0 0 64 94" style="enable-background:new 0 0 64 94;" xml:space="preserve">
<g id="group">
	<path id="mate" d="M60.4,57.6c-1.6-4.8-4.6-17.5-5.8-22.8c-0.4-1.9-2.1-3.3-4.1-3.3H38.8l9.8-23.1c0.4-0.9,0.4-1.8,0-2.7
		s-1-1.6-1.9-1.9l-3.1-1.3c-0.9-0.4-1.8-0.4-2.7,0s-1.6,1-1.9,1.9L27.4,31.5H13.5c-2,0-3.7,1.3-4.1,3.3c-1.2,5.3-4.2,18-5.8,22.8
		C2.8,60.2,2,63,2,66c0,14.3,13.5,25.8,30,25.8v-4.1C17.7,87.7,6.1,78,6.1,66c0-2.4,0.7-4.9,1.4-7.1c0.9-2.7,2.2-7.7,3.4-12.6H53
		c1.2,4.9,2.5,9.9,3.4,12.6c0.7,2.2,1.4,4.6,1.4,7.1c0,12-11.6,21.7-25.9,21.7v4.1c16.5,0,30-11.6,30-25.8
		C62,63,61.2,60.2,60.4,57.6z M42.5,6.5l2.1,0.9L34.3,31.5H32h-0.1L42.5,6.5z M12,42.2c0.6-2.6,1.2-4.9,1.6-6.5h12.1H32l18.5,0.1
		c0.4,1.6,0.9,3.9,1.5,6.4C52.1,42.2,12,42.2,12,42.2z"/>
	<g id="mate-line">
		<path d="M32,81.3L32,81.3c0-1.1,0.8-2,1.8-2c8.1-0.7,14.5-6,15.5-12.7c0.1-1,1-1.8,2-1.8l0,0c1.3,0,2.3,1.1,2.1,2.4
			c-1.3,8.5-9.2,15.3-19.1,16.2C33.1,83.5,32,82.6,32,81.3z"/>
	</g>
</g>
</svg>
